<svg xmlns="http://www.w3.org/2000/svg" height="36px" width="41px" xmlns:xlink="http://www.w3.org/1999/xlink" viewBox="0 0 41 36">
<g fill-rule="evenodd" fill="none">
<g transform="translate(-1230 -12)" fill="#fff">
<g>
<g transform="translate(1230 12)">
<path d="m29.501 0h-18.425l-10.873 12.729h3.8321v13.553l-2.9221 0.375s-1.4079 0.262-1.0568 1.746c0.29343 0.932 1.4212 0.889 1.4212 0.889l2.5577-0.318v3.756l18.233 3.27 14.493-3.241-0.026-20.007h4.265l-11.499-12.752zm-3.988 15.139l3.842-0.185 0.01 5.227-3.879 0.311 0.027-5.353zm-19.972 16.686l0.0173-2.867 8.0152-1.069s1.38 0.009 1.27-1.526c-0.097-1.369-1.561-1.132-1.561-1.132l-7.7242 0.892 0.047-13.415 8.3612-10.493 8.735 10.493 0.015 22.184-17.176-3.067h0.0005zm19.946-4.133l0.015-5.237 3.837-0.301 0.027 5.165-3.879 0.373zm9.419-0.867l-3.324 0.313v-5.299l3.324-0.239v5.225zm-3.322-6.333l-0.002-5.43 3.316-0.108 0.008 5.322-3.322 0.216z"/>
<path d="m17.167 12.803c-0.951-1.054-2.262-1.726-3.702-1.726-0.074 0-0.152 0.002-0.228 0.006-1.427 0.07-2.676 0.795-3.5447 1.872-0.8684 1.077-1.3815 2.513-1.3815 4.077 0 0.132 0.0042 0.265 0.0098 0.397 0.0903 1.608 0.7077 3.051 1.6609 4.106 0.9495 1.052 2.2615 1.727 3.7005 1.727 0.076 0 0.153-0.002 0.229-0.006 1.427-0.071 2.676-0.796 3.545-1.873 0.87-1.077 1.382-2.513 1.382-4.077 0-0.131-0.004-0.265-0.011-0.398-0.09-1.609-0.706-3.052-1.66-4.105zm-0.588 7.897c-0.711 0.868-1.662 1.396-2.727 1.45-0.057 0.003-0.113 0.004-0.171 0.004-1.071 0-2.081-0.493-2.864-1.348-0.78-0.854-1.3127-2.064-1.3872-3.433-0.0067-0.113-0.0109-0.226-0.0109-0.337 0-1.329 0.443-2.529 1.1501-3.397 0.711-0.868 1.663-1.397 2.726-1.45 0.058-0.002 0.115-0.004 0.172-0.004 1.071 0 2.081 0.493 2.863 1.349 0.782 0.854 1.315 2.065 1.388 3.432 0.008 0.114 0.012 0.225 0.012 0.338 0 1.327-0.444 2.529-1.151 3.396z"/>
<path d="m11.606 17.231c-0.087-1.795 0.454-3.349 1.282-3.939-1.406 0.106-2.458 1.893-2.354 4.018 0.106 2.141 1.343 3.812 2.763 3.734l-0.001-0.022c-0.896-0.476-1.602-1.976-1.69-3.791"/>
<path d="m38.118 31.282h-0.442v-0.267h1.108v0.267h-0.442v1.395h-0.224v-1.395zm1.22-0.267h0.385l0.452 1.263 0.451-1.263h0.374v1.662h-0.242v-1.395h-0.007l-0.5 1.395h-0.165l-0.499-1.395h-0.007v1.395h-0.242v-1.662z"/>
</g>
</g>
</g>
</g>
</svg>
